<?xml version="1.0" encoding="UTF-8"?>
<!DOCTYPE svg PUBLIC "-//W3C//DTD SVG 1.1//EN" "http://www.w3.org/Graphics/SVG/1.1/DTD/svg11.dtd">
<!-- Creator: CorelDRAW 2020 -->
<svg xmlns="http://www.w3.org/2000/svg" xml:space="preserve" width="37.1365mm" height="3.2656mm" version="1.1" style="shape-rendering:geometricPrecision; text-rendering:geometricPrecision; image-rendering:optimizeQuality; fill-rule:evenodd; clip-rule:evenodd"
viewBox="0 0 1449.86 127.49"
 xmlns:xlink="http://www.w3.org/1999/xlink"
 xmlns:xodm="http://www.corel.com/coreldraw/odm/2003">
 <defs>
  <style type="text/css">
   <![CDATA[
    .str0 {stroke:#C6B93A;stroke-width:11.71;stroke-miterlimit:22.9256}
    .fil1 {fill:none}
    .fil0 {fill:#C6B93A;fill-rule:nonzero}
   ]]>
  </style>
 </defs>
 <g id="Layer_x0020_1">
  <metadata id="CorelCorpID_0Corel-Layer"/>
  <g id="_1072251088">
   <path class="fil0" d="M246.25 81.48c0,-2.31 -2.84,-4.93 -8.51,-7.87 -7.22,-3.71 -12.09,-6.65 -14.64,-8.87 -2.53,-2.22 -3.8,-4.7 -3.8,-7.43 0,-7.07 3.54,-12.93 10.62,-17.58 7.09,-4.66 12.87,-6.98 17.34,-6.98 2.88,0 4.96,0.51 6.25,1.49 1.29,1 1.95,2.73 1.95,5.18 0,1.09 -0.48,2.03 -1.42,2.82 -0.93,0.78 -1.67,1.16 -2.2,1.16 -0.4,0 -1.16,-0.26 -2.29,-0.8 -1.14,-0.49 -1.89,-0.75 -2.24,-0.75 -1.78,0 -5.38,1.31 -10.81,3.89 -5.44,2.6 -8.14,5.52 -8.14,8.8 0,1.98 0.96,3.78 2.87,5.4 1.92,1.62 5.36,3.6 10.33,5.94 4.02,1.91 7.22,3.96 9.62,6.15 2.4,2.18 3.6,4.74 3.6,7.69 0,5.43 -3.75,9.69 -11.24,12.76 -7.49,3.07 -14.65,4.6 -21.47,4.61 -5.74,-0.02 -8.62,-1.96 -8.62,-5.87 0,-1.35 0.64,-2.35 1.94,-2.98 1.29,-0.64 2.6,-0.97 3.91,-0.97 0.53,0 1.55,0.18 3.04,0.55 1.46,0.35 2.42,0.53 2.87,0.53 3.94,0 8.16,-0.66 12.67,-1.96 4.51,-1.33 7.31,-2.96 8.37,-4.91zm29.83 -12.67c0.46,-0.6 3.64,-3.47 9.53,-8.58 5.58,-4.85 9.47,-8.4 11.67,-10.6 8.19,-8.2 14.09,-12.31 17.69,-12.31 2.76,0 4.15,1.35 4.15,4 0,3.02 -1.36,5.24 -4.09,6.66 -3.56,1.82 -8.29,4.81 -14.23,9.03 -5.93,4.2 -8.89,7.18 -8.89,8.92 0,0.71 2.09,3.37 6.29,7.96 4.18,4.6 7.82,7.98 10.85,10.16 3.05,2.18 6.04,3.27 8.91,3.27l1.75 -0.05c1.25,-0.07 1.87,0.49 1.87,1.66 0,1.57 -0.98,3.17 -2.93,4.76 -1.96,1.62 -4.52,2.44 -7.73,2.44 -2.05,0 -4.14,-0.73 -6.25,-2.16 -2.11,-1.44 -5.87,-5.31 -11.27,-11.63 -4.29,-5.22 -6.98,-8.35 -8.04,-9.35 -1.07,-1.02 -1.96,-1.53 -2.67,-1.53 -0.38,0 -1.64,0.93 -3.73,2.78 -2.09,1.83 -3.24,3.23 -3.44,4.2 -0.18,0.96 -0.29,4.62 -0.29,10.98l0 2.49c0,1.33 -0.62,2.49 -1.86,3.53 -1.25,1.02 -2.6,1.55 -4.05,1.55 -1.49,0 -2.65,-0.44 -3.51,-1.31 -0.86,-0.87 -1.29,-1.76 -1.29,-2.69 0,-1.27 0.49,-4.29 1.44,-9.05 1.36,-6.86 2.6,-16.04 3.72,-27.54 2.64,-27.16 4.66,-42.52 6.07,-46.09 1.44,-3.58 3.46,-5.36 6.07,-5.36 0.93,0 1.71,0.49 2.33,1.49 0.61,1 0.92,2.27 0.92,3.84 0,2.83 -1.22,10.38 -3.67,22.64 -2.46,12.29 -4.22,24.25 -5.33,35.9zm81.45 -9.8l3.89 0c6.6,0 11.51,-0.23 14.74,-0.69 1.56,-0.21 3.12,-0.32 4.69,-0.32 0.68,0 2.05,0.42 4.13,1.22 2.07,0.82 3.31,1.51 3.71,2.05 0.38,0.57 0.59,1.29 0.59,2.22 0,1.31 -0.28,2.24 -0.8,2.76 -0.53,0.53 -1.69,0.8 -3.47,0.8 -0.78,0 -1.87,-0.23 -3.29,-0.69 -1.42,-0.45 -2.62,-0.69 -3.58,-0.69 -0.38,0 -1.67,0.09 -3.87,0.27 -1.18,0.09 -3.31,0.02 -6.39,-0.27 -2.39,-0.22 -4.15,-0.33 -5.33,-0.33 -1.64,0 -4.11,0.11 -7.4,0.33 -3.31,0.21 -5.8,0.32 -7.51,0.32 -1.71,0 -3.09,-0.2 -4.12,-0.56 -1.05,-0.38 -1.59,-1.22 -1.59,-2.53 0,-0.58 0.24,-1.24 0.73,-2 0.47,-0.76 2.11,-1.36 4.87,-1.82 2.76,-0.44 4.76,-0.67 5.96,-0.67l4.06 0.6zm57.52 -51.45l0.17 0c1,0 2.49,0.35 4.47,1.06 1.98,0.71 3.29,1.3 3.91,1.78 0.62,0.49 0.94,1.29 0.94,2.44 0,2.2 -1.02,4.13 -3.04,5.78 -2.03,1.64 -3.54,2.47 -4.52,2.47 -1.71,0 -3.2,-0.75 -4.49,-2.23 -1.27,-1.49 -1.91,-2.98 -1.91,-4.47 0,-3.84 1.49,-6.11 4.47,-6.82zm-21.56 119.94c-4.24,0 -8.33,-1.76 -12.29,-5.29 -3.96,-3.53 -5.93,-6.58 -5.93,-9.15 0,-0.71 0.23,-1.4 0.75,-2.09 0.49,-0.69 0.86,-1.04 1.1,-1.04 0.25,0 0.8,0.35 1.66,1.06 5.58,4.91 10.07,7.34 13.47,7.34 2.8,0 5.22,-1.33 7.25,-4.02 2.02,-2.67 3.47,-7.66 4.36,-14.91 0.89,-7.26 1.72,-18.54 2.49,-33.86 0.55,-11.03 1.02,-18.05 1.42,-21.03 0.42,-2.98 1.25,-5.07 2.53,-6.25 1.29,-1.2 2.91,-1.8 4.91,-1.8 1.02,0 2,0.4 2.9,1.2 0.89,0.8 1.35,1.78 1.35,2.91 0,0.63 -0.13,1.51 -0.37,2.62 -2.6,11.22 -4.29,25.83 -5.07,43.83 -0.49,10.86 -1.51,18.91 -3.04,24.12 -1.53,5.22 -3.87,9.25 -7.05,12.09 -3.18,2.84 -6.65,4.26 -10.45,4.26zm57.41 -31.16c-4.85,0 -8.87,-1.84 -12.04,-5.53 -3.16,-3.69 -4.74,-8.26 -4.74,-13.69 0,-9.16 3.09,-18.2 9.25,-27.09 6.15,-8.89 13.52,-13.34 22.12,-13.34 5.68,0 10.29,2.18 13.82,6.56 3.53,4.36 5.31,9.56 5.31,15.6 0,9.23 -3.65,17.78 -10.94,25.67 -7.31,7.89 -14.89,11.82 -22.78,11.82zm-7.4 -20.6c0,3.58 0.75,6.51 2.25,8.78 1.51,2.27 3.51,3.42 6,3.42 5.29,0 10.6,-2.91 15.93,-8.71 5.33,-5.82 7.98,-12.27 7.98,-19.36 0,-4.38 -1.02,-7.91 -3.05,-10.63 -2.04,-2.71 -4.78,-4.08 -8.24,-4.08 -5.7,0 -10.61,3.51 -14.72,10.53 -4.09,7 -6.15,13.69 -6.15,20.05zm63.29 -12.36c4.54,-8.27 9.98,-14.98 16.28,-20.11 6.33,-5.13 12.02,-7.69 17.11,-7.69 2.8,0 5.18,1.29 7.13,3.89 1.96,2.58 2.92,5.74 2.92,9.47 0,11.04 -4.16,21.4 -12.49,31.09 -8.33,9.67 -17.11,14.5 -26.38,14.5 -2.53,0 -4.84,-0.69 -6.97,-2.05 -2.11,-1.37 -3.29,-3.07 -3.53,-5.15 -0.15,-1.66 -0.64,-2.91 -1.44,-3.72 -1.53,-1.53 -2.29,-3.16 -2.29,-4.89 0,-3.23 0.87,-10.14 2.65,-20.72l5.49 -31.85c1.87,-10.69 3.26,-17.29 4.13,-19.81 0.87,-2.51 1.83,-4.2 2.9,-5.06 1.06,-0.86 2.37,-1.27 3.93,-1.27 2.49,0 3.72,2.14 3.72,6.43 0,4.09 -1.36,9.8 -4.09,17.16 -2.64,7.05 -5.67,20.32 -9.1,39.78zm-1.29 17.74c1.85,3.44 4.09,5.17 6.73,5.17 4.03,0 8.32,-1.69 12.83,-5.04 4.51,-3.37 8.4,-8.07 11.69,-14.16 3.28,-6.09 4.93,-11.24 4.93,-15.44 0,-1.87 -0.34,-3.49 -1.02,-4.83 -0.68,-1.35 -1.53,-2.04 -2.57,-2.04 -4.93,0 -10.96,4.06 -18.07,12.13 -7.13,8.07 -11.96,16.14 -14.52,24.22zm90.92 -6.82c-4.96,6.67 -9.89,11.67 -14.74,15.02 -4.88,3.33 -9.33,5 -13.38,5 -2.73,0 -5.09,-1.15 -7.07,-3.46 -2,-2.31 -2.98,-5.27 -2.98,-8.91 0,-9.33 4.16,-19.38 12.5,-30.16 8.35,-10.78 16.64,-16.16 24.87,-16.16 2.98,0 5.2,1.69 6.67,5.11 0.45,1.13 1.18,1.71 2.18,1.71 2.84,0 4.26,1.09 4.26,3.29 0,1.11 -0.18,2.62 -0.53,4.53 -1.92,10.47 -2.87,17.87 -2.87,22.16 0,8.6 1.62,13.74 4.89,15.46 1.56,0.85 2.34,1.89 2.34,3.12 0,1.11 -0.76,2.22 -2.29,3.35 -1.53,1.11 -3,1.67 -4.42,1.67 -2.75,0 -5,-1.89 -6.76,-5.65 -1.78,-3.76 -2.67,-9.12 -2.67,-16.07zm-3.24 -30c-4.69,0 -10.14,4.4 -16.36,13.18 -6.22,8.8 -9.32,16.09 -9.32,21.87 0,4.07 1.36,6.13 4.05,6.13 3.91,0 9.33,-3.95 16.25,-11.84 6.93,-7.87 10.38,-15.12 10.38,-21.72 0,-5.08 -1.67,-7.62 -5,-7.62zm122.84 21.89c-2.43,1.89 -5.49,3.6 -9.14,5.16 -3.67,1.56 -6.47,2.35 -8.42,2.35 -2.64,0 -5.09,-1 -7.36,-3 -2.27,-2.02 -3.4,-4.13 -3.4,-6.37 0,-5.33 2.56,-11.25 7.73,-17.8 5.14,-6.53 9.62,-9.8 13.41,-9.8 4.69,0 8.05,1.02 10.13,3.04 0.46,0.32 0.69,0.87 0.69,1.66 0,0.52 -0.04,1.12 -0.09,1.82 -0.05,0.67 0.25,1 0.95,1 0.31,0 0.75,-0.14 1.27,-0.41 0.53,-0.3 0.98,-0.44 1.33,-0.44 1.98,0 2.98,0.94 2.98,2.83 0,0.46 -0.56,2.09 -1.71,4.9 -1.09,2.6 -1.78,4.34 -2.04,5.25 -0.27,0.91 -0.4,2.16 -0.4,3.8 0,1.6 1.18,2.4 3.56,2.4 3.24,0 6.22,-1.69 8.98,-5.06 2.74,-3.38 4.13,-6.69 4.13,-9.96 0,-3.24 -1.37,-7.53 -4.06,-12.89 -2.69,-5.36 -6,-9.12 -9.91,-11.27 -3.91,-2.14 -7,-3.22 -9.27,-3.22 -4.11,0 -9.55,2.76 -16.27,8.29 -6.73,5.51 -12.63,12.67 -17.72,21.49 -5.11,8.8 -7.66,15.09 -7.66,18.85 0,5.08 3.09,9.75 9.26,14 6.14,4.28 13.34,6.4 21.6,6.4 4.25,0 9.87,-1 16.85,-3.02 6.98,-2 12.45,-4.58 16.44,-7.75 1.45,-1.16 2.33,-1.76 2.6,-1.76 0.55,0 1.16,0.25 1.87,0.75 0.71,0.51 1.05,0.96 1.05,1.4 0,2.69 -0.67,4.76 -2.03,6.22 -1.38,1.45 -3.82,2.9 -7.32,4.35 -3.53,1.44 -8.6,2.83 -15.24,4.22 -6.64,1.36 -12.61,2.03 -17.91,2.03 -8.58,0 -16.49,-2.47 -23.69,-7.45 -7.22,-4.96 -10.82,-11.4 -10.82,-19.27 0,-5.58 2.96,-13.37 8.87,-23.35 5.9,-9.96 12.63,-17.76 20.16,-23.34 7.52,-5.6 14,-8.4 19.43,-8.4 8.73,0 15.91,3.68 21.55,11 5.63,7.34 8.43,14.77 8.43,22.29 0,4.73 -1.23,9.23 -3.73,13.54 -2.47,4.29 -5.69,7.11 -9.6,8.44 -3.93,1.33 -6.25,2 -6.97,2 -3.23,0 -6.07,-1.64 -8.53,-4.91zm-3.34 -22.36c-4.29,0.2 -8.16,2.85 -11.58,7.92 -3.44,5.09 -5.15,8.69 -5.15,10.82 0,1.42 0.36,2.42 1.09,2.98 0.73,0.57 2.29,0.86 4.71,0.86 1.64,0 4.06,-0.94 7.27,-2.85 3.22,-1.89 4.82,-3.56 4.82,-4.99 0,-0.38 -0.09,-1.78 -0.25,-4.2 -0.11,-1.6 0.25,-3.25 1.11,-4.96 0.82,-1.57 1.24,-2.37 1.24,-2.44 0,-0.43 -1.1,-1.47 -3.26,-3.14zm104.42 52.5c-4.86,0 -8.87,-1.84 -12.04,-5.53 -3.16,-3.69 -4.74,-8.26 -4.74,-13.69 0,-9.16 3.09,-18.2 9.25,-27.09 6.15,-8.89 13.52,-13.34 22.12,-13.34 5.67,0 10.29,2.18 13.82,6.56 3.53,4.36 5.31,9.56 5.31,15.6 0,9.23 -3.65,17.78 -10.94,25.67 -7.31,7.89 -14.89,11.82 -22.78,11.82zm-7.4 -20.6c0,3.58 0.75,6.51 2.25,8.78 1.51,2.27 3.51,3.42 6,3.42 5.29,0 10.6,-2.91 15.93,-8.71 5.33,-5.82 7.98,-12.27 7.98,-19.36 0,-4.38 -1.02,-7.91 -3.05,-10.63 -2.04,-2.71 -4.78,-4.08 -8.24,-4.08 -5.7,0 -10.62,3.51 -14.72,10.53 -4.09,7 -6.15,13.69 -6.15,20.05zm91.14 -5.22c-4.54,7.62 -9.2,13.54 -13.97,17.73 -4.74,4.2 -9.16,6.29 -13.25,6.29 -2.35,0 -4.73,-1.36 -7.16,-4.11 -2.44,-2.73 -3.65,-6.95 -3.65,-12.61 0,-4.65 1.12,-11.51 3.36,-20.56 1.87,-7.57 2.82,-12.87 2.82,-15.93 1.03,-2.12 2.65,-3.2 4.85,-3.2 1.49,0 2.67,0.53 3.56,1.58 0.89,1.04 1.32,2.13 1.32,3.27 0,2.49 -0.87,6.02 -2.6,10.6 -3.31,8.91 -4.96,16.56 -4.96,22.96 0,5.82 1.34,8.73 4.05,8.73 3.44,0 7.84,-2.92 13.15,-8.78 5.33,-5.87 9.89,-14.04 13.69,-24.51 1.49,-4.18 2.71,-6.91 3.65,-8.18 0.94,-1.25 2.22,-1.89 3.82,-1.89 2.4,0 3.62,1.6 3.62,4.8 0,0.38 -0.34,1.69 -1.02,3.89 -2.13,7.78 -3.2,15.13 -3.2,22.05 0,8.3 1.38,13.69 4.11,16.12 1.42,1.33 2.12,2.38 2.12,3.2 0,1 -0.71,1.91 -2.16,2.73 -1.44,0.82 -2.73,1.22 -3.91,1.22 -2.49,0 -4.49,-1.85 -6.02,-5.55 -1.53,-3.69 -2.29,-9.14 -2.29,-16.35l0 -1.76c0,-0.57 0.02,-1.14 0.05,-1.75zm50.59 -30.58c3.66,-0.29 7.11,-0.62 10.33,-1.02 3.2,-0.35 5.87,-0.53 8,-0.53 2.69,0 4.4,0.25 5.11,0.75 0.71,0.49 1.07,1.36 1.07,2.62 0,2.87 -2.02,4.44 -6.02,4.67 -5.16,0.33 -9.89,0.77 -14.23,1.34 -4.33,0.57 -6.65,1.04 -7,1.4 -0.33,0.38 -1.4,4.6 -3.22,12.67 -1.82,8.09 -2.73,13.32 -2.73,15.74 0,3.91 0.52,6.51 1.55,7.8 1.03,1.31 2.58,1.94 4.63,1.94 3.05,0 7.31,-2.29 12.74,-6.87 2.09,-1.87 3.71,-2.82 4.84,-2.82 1.53,0 2.29,0.82 2.29,2.46 0,2.57 -2.45,5.87 -7.38,9.93 -4.91,4.07 -9.94,6.11 -15.09,6.11 -8.6,0 -12.89,-5.07 -12.89,-15.18 0,-3.65 0.89,-9.32 2.65,-16.99 1.75,-7.64 2.62,-12.22 2.62,-13.74 0,-0.53 -0.44,-0.8 -1.27,-0.8l-5.54 0.49c-4.54,0 -6.82,-1.82 -6.82,-5.44 0,-2.05 1.04,-3.09 3.15,-3.09l10.96 0c0.75,0 1.4,-0.35 1.98,-1.02 0.56,-0.68 1.4,-2.93 2.49,-6.78 1.11,-3.85 2.09,-7.67 2.93,-11.44 0.86,-3.73 2.53,-5.58 5.02,-5.58 1.53,0 2.71,0.53 3.56,1.6 0.86,1.05 1.27,2.05 1.27,2.98 0,0.49 -0.64,3.04 -1.91,7.62l-3.09 11.18zm50.98 -36.43c2.57,0 3.84,1.64 3.84,4.91 0,2.91 -1.55,9.83 -4.64,20.76 -1.94,6.89 -3.46,14.49 -4.52,22.8 -1.07,8.31 -1.6,14.82 -1.6,19.54 0,5.86 0.38,11.69 1.12,17.47 0.15,1.11 0.2,1.91 0.2,2.4 0,1.78 -0.6,3.31 -1.8,4.59 -1.22,1.27 -2.49,1.91 -3.84,1.91 -1.89,0 -3.18,-1.16 -3.9,-3.51 -0.73,-2.35 -1.1,-6.13 -1.1,-11.35 0,-11.89 1.42,-26.63 4.28,-44.21 2.87,-17.56 5.15,-27.85 6.82,-30.83 1.69,-2.98 3.4,-4.47 5.14,-4.47zm28.13 92.83c-4.86,0 -8.87,-1.84 -12.04,-5.53 -3.16,-3.69 -4.74,-8.26 -4.74,-13.69 0,-9.16 3.09,-18.2 9.25,-27.09 6.15,-8.89 13.52,-13.34 22.12,-13.34 5.67,0 10.29,2.18 13.82,6.56 3.53,4.36 5.31,9.56 5.31,15.6 0,9.23 -3.65,17.78 -10.94,25.67 -7.31,7.89 -14.89,11.82 -22.78,11.82zm-7.4 -20.6c0,3.58 0.75,6.51 2.25,8.78 1.51,2.27 3.51,3.42 6,3.42 5.29,0 10.6,-2.91 15.93,-8.71 5.33,-5.82 7.98,-12.27 7.98,-19.36 0,-4.38 -1.02,-7.91 -3.05,-10.63 -2.04,-2.71 -4.78,-4.08 -8.24,-4.08 -5.7,0 -10.62,3.51 -14.72,10.53 -4.09,7 -6.15,13.69 -6.15,20.05zm69.08 20.6c-4.85,0 -8.87,-1.84 -12.04,-5.53 -3.16,-3.69 -4.74,-8.26 -4.74,-13.69 0,-9.16 3.09,-18.2 9.26,-27.09 6.15,-8.89 13.52,-13.34 22.12,-13.34 5.68,0 10.29,2.18 13.82,6.56 3.52,4.36 5.31,9.56 5.31,15.6 0,9.23 -3.65,17.78 -10.94,25.67 -7.31,7.89 -14.89,11.82 -22.78,11.82zm-7.4 -20.6c0,3.58 0.75,6.51 2.25,8.78 1.51,2.27 3.51,3.42 6,3.42 5.29,0 10.6,-2.91 15.93,-8.71 5.33,-5.82 7.98,-12.27 7.98,-19.36 0,-4.38 -1.02,-7.91 -3.05,-10.63 -2.04,-2.71 -4.78,-4.08 -8.24,-4.08 -5.7,0 -10.61,3.51 -14.72,10.53 -4.09,7 -6.15,13.69 -6.15,20.05zm63.87 -6.93c0.46,-0.6 3.64,-3.47 9.53,-8.58 5.58,-4.85 9.47,-8.4 11.67,-10.6 8.2,-8.2 14.09,-12.31 17.69,-12.31 2.76,0 4.15,1.35 4.15,4 0,3.02 -1.37,5.24 -4.1,6.66 -3.56,1.82 -8.29,4.81 -14.23,9.03 -5.93,4.2 -8.89,7.18 -8.89,8.92 0,0.71 2.09,3.37 6.29,7.96 4.18,4.6 7.82,7.98 10.85,10.16 3.05,2.18 6.03,3.27 8.91,3.27l1.74 -0.05c1.26,-0.07 1.87,0.49 1.87,1.66 0,1.57 -0.98,3.17 -2.93,4.76 -1.96,1.62 -4.52,2.44 -7.73,2.44 -2.05,0 -4.14,-0.73 -6.25,-2.16 -2.1,-1.44 -5.87,-5.31 -11.27,-11.63 -4.29,-5.22 -6.98,-8.35 -8.03,-9.35 -1.07,-1.02 -1.96,-1.53 -2.67,-1.53 -0.38,0 -1.64,0.93 -3.73,2.78 -2.09,1.83 -3.24,3.23 -3.44,4.2 -0.18,0.96 -0.29,4.62 -0.29,10.98l0 2.49c0,1.33 -0.62,2.49 -1.85,3.53 -1.25,1.02 -2.6,1.55 -4.05,1.55 -1.49,0 -2.65,-0.44 -3.51,-1.31 -0.86,-0.87 -1.29,-1.76 -1.29,-2.69 0,-1.27 0.49,-4.29 1.43,-9.05 1.37,-6.86 2.6,-16.04 3.73,-27.54 2.64,-27.16 4.66,-42.52 6.07,-46.09 1.44,-3.58 3.46,-5.36 6.07,-5.36 0.93,0 1.71,0.49 2.33,1.49 0.62,1 0.93,2.27 0.93,3.84 0,2.83 -1.22,10.38 -3.67,22.64 -2.45,12.29 -4.22,24.25 -5.33,35.9zm61.85 10.17l1.16 0c0.64,0 1.4,0.31 2.29,0.94 0.89,0.62 1.33,1.46 1.33,2.53 0,2.12 -0.36,3.69 -1.11,4.69 -0.75,0.98 -1.94,2.09 -3.6,3.29 -1.66,1.22 -2.82,1.82 -3.49,1.82 -1.49,0 -2.6,-0.34 -3.31,-1.02 -0.71,-0.67 -1.05,-2.51 -1.05,-5.55 0,-2.8 0.17,-4.47 0.48,-5 0.32,-0.53 1.09,-0.94 2.33,-1.26 1.22,-0.29 2.87,-0.45 4.98,-0.45zm34.25 17.74c-5.33,0 -9.43,-1.53 -12.29,-4.58 -2.85,-3.06 -4.29,-7.33 -4.29,-12.84 0,-9.27 3.67,-19.03 11.04,-29.32 7.34,-10.27 14.18,-15.41 20.5,-15.41 2.87,0 5.34,1.54 7.42,4.65 2.09,3.1 3.13,6.4 3.13,9.89 0,2.09 -0.45,3.89 -1.36,5.4 -0.91,1.51 -1.82,2.27 -2.74,2.27 -2.06,0 -3.51,-2.09 -4.36,-6.24 -0.96,-4.47 -2.35,-6.7 -4.16,-6.7 -3.69,0 -8.05,4.38 -13.09,13.14 -5.06,8.78 -7.56,16.18 -7.56,22.21 0,6.04 3.42,9.06 10.27,9.06 5.22,0 11.36,-2.46 18.43,-7.35 2.49,-1.75 4.31,-2.62 5.49,-2.62 1.2,0 1.8,0.69 1.8,2.09 0,2.69 -3.18,6.09 -9.52,10.2 -6.36,4.09 -12.6,6.15 -18.69,6.15zm56.29 -0.38c-4.86,0 -8.87,-1.84 -12.04,-5.53 -3.16,-3.69 -4.74,-8.26 -4.74,-13.69 0,-9.16 3.09,-18.2 9.25,-27.09 6.15,-8.89 13.52,-13.34 22.12,-13.34 5.67,0 10.29,2.18 13.82,6.56 3.53,4.36 5.31,9.56 5.31,15.6 0,9.23 -3.65,17.78 -10.94,25.67 -7.31,7.89 -14.89,11.82 -22.78,11.82zm-7.4 -20.6c0,3.58 0.75,6.51 2.25,8.78 1.51,2.27 3.51,3.42 6,3.42 5.29,0 10.6,-2.91 15.93,-8.71 5.33,-5.82 7.98,-12.27 7.98,-19.36 0,-4.38 -1.02,-7.91 -3.05,-10.63 -2.04,-2.71 -4.78,-4.08 -8.24,-4.08 -5.7,0 -10.62,3.51 -14.72,10.53 -4.09,7 -6.15,13.69 -6.15,20.05zm93.75 -24.17c-3.31,0.07 -10.38,9.85 -21.2,29.34 -3.67,6.56 -5.8,10.14 -6.39,10.72 -0.6,0.58 -1.71,1.11 -3.33,1.59 -1.62,0.45 -2.96,0.69 -4.02,0.69 -2.38,0 -3.58,-4.63 -3.58,-13.91 0,-5.22 1.12,-14.67 3.36,-28.34 0.93,-5.52 1.39,-9.49 1.39,-11.87 0,-2.35 1.05,-3.51 3.14,-3.51 3.94,0 5.91,2.84 5.91,8.51 0,2.67 -0.65,7.89 -1.96,15.68 -1.53,8.87 -2.31,14.27 -2.35,16.18 2.2,-2.13 5.44,-6.8 9.69,-14 6.04,-9.87 10.49,-16.12 13.35,-18.78 2.85,-2.64 5.82,-3.96 8.87,-3.96 2.31,0 4.15,1.55 5.51,4.63 1.36,3.09 2.2,10.46 2.47,22.11 0.07,2.91 0.34,5.07 0.8,6.49 0.47,1.42 0.8,2.12 1.02,2.12 1.67,0 5.29,-5.67 10.87,-17.03 2.99,-6 5.87,-10.56 8.71,-13.69 2.82,-3.13 5.95,-4.69 9.4,-4.69 2.87,0 4.96,1.49 6.27,4.45 1.33,2.97 2.26,7.34 2.84,13.18 0.53,5.89 1.35,11.29 2.47,16.18 1.11,4.91 3.16,8.05 6.15,9.44 2.04,0.96 3.04,2.07 3.04,3.36 0,1.24 -0.86,2.51 -2.55,3.82 -1.71,1.33 -3.28,1.98 -4.69,1.98 -2.86,0 -5.38,-1.74 -7.62,-5.22 -2.24,-3.49 -3.93,-11.02 -5.06,-22.58 -0.51,-4.66 -0.98,-7.96 -1.45,-9.91 -0.46,-1.96 -1.18,-2.95 -2.18,-2.95 -1.49,0 -3.26,1.44 -5.29,4.27 -2.06,2.84 -5.35,8.62 -9.89,17.31 -3.54,6.78 -6.24,11.31 -8.07,13.56 -1.82,2.25 -3.58,3.38 -5.29,3.38 -1.53,0 -2.89,-0.62 -4.11,-1.83 -1.2,-1.24 -1.96,-2.71 -2.29,-4.44 -0.31,-1.71 -0.65,-5.95 -1,-12.69 -0.55,-11.22 -1.51,-17.76 -2.93,-19.59z"/>
   <g>
    <polygon class="fil1 str0" points="5.86,18.06 140.4,18.06 140.4,100.89 5.86,100.89 "/>
    <polyline class="fil1 str0" points="5.86,18.06 73.13,67.76 140.4,18.06 "/>
   </g>
  </g>
 </g>
</svg>
